<svg id="visual" viewBox="0 0 1920 1080" width="1920" height="1080" xmlns="http://www.w3.org/2000/svg" xmlns:xlink="http://www.w3.org/1999/xlink" version="1.1"><rect x="0" y="0" width="1920" height="1080" fill="#ded5a8"></rect><defs><linearGradient id="grad1_0" x1="43.8%" y1="0%" x2="100%" y2="100%"><stop offset="14.444444444444446%" stop-color="#ded5a8" stop-opacity="1"></stop><stop offset="85.55555555555554%" stop-color="#ded5a8" stop-opacity="1"></stop></linearGradient></defs><defs><linearGradient id="grad2_0" x1="0%" y1="0%" x2="56.3%" y2="100%"><stop offset="14.444444444444446%" stop-color="#ded5a8" stop-opacity="1"></stop><stop offset="85.55555555555554%" stop-color="#ded5a8" stop-opacity="1"></stop></linearGradient></defs><g transform="translate(1920, 0)"><path d="M0 756C-111.2 758 -222.4 760 -289.3 698.5C-356.2 636.9 -378.9 511.8 -434.9 434.9C-490.9 358 -580.2 329.3 -639.3 264.8C-698.4 200.4 -727.2 100.2 -756 0L0 0Z" fill="#64981B"></path></g><g transform="translate(0, 1080)"><path d="M0 -756C102.4 -748.9 204.9 -741.9 289.3 -698.5C373.8 -655 440.2 -575.3 499.9 -499.9C559.6 -424.5 612.6 -353.5 654.1 -270.9C695.7 -188.3 725.8 -94.2 756 0L0 0Z" fill="#64981B"></path></g></svg>