<svg id="visual" viewBox="0 0 1920 1080" width="1920" height="1080" xmlns="http://www.w3.org/2000/svg" xmlns:xlink="http://www.w3.org/1999/xlink" version="1.1"><rect x="0" y="0" width="1920" height="1080" fill="#5D8127"></rect><path d="M0 947L64 937.8C128 928.7 256 910.3 384 904.8C512 899.3 640 906.7 768 922.7C896 938.7 1024 963.3 1152 975.5C1280 987.7 1408 987.3 1536 963.3C1664 939.3 1792 891.7 1856 867.8L1920 844L1920 1081L1856 1081C1792 1081 1664 1081 1536 1081C1408 1081 1280 1081 1152 1081C1024 1081 896 1081 768 1081C640 1081 512 1081 384 1081C256 1081 128 1081 64 1081L0 1081Z" fill="#E2DECA" stroke-linecap="round" stroke-linejoin="miter"></path></svg>